<svg width="80" height="80" viewBox="0 0 80 80" fill="none" xmlns="http://www.w3.org/2000/svg">
<path d="M49.8275 6.6438V39.8622C49.8275 43.5162 46.8378 46.5059 43.1838 46.5059H6.64355V25.3125C9.0685 28.2025 12.789 29.9963 16.9081 29.8967C20.2632 29.8302 23.286 28.5347 25.5448 26.3755C26.5746 25.5119 27.4383 24.4156 28.1027 23.2197C29.2986 21.1934 29.9629 18.8016 29.8964 16.3103C29.7968 12.4237 28.0695 9.0023 25.3788 6.6438H49.8275Z" stroke="#16161A" stroke-width="3" stroke-linecap="round" stroke-linejoin="round"/>
<path d="M73.0803 46.5059V56.4714C73.0803 61.9857 68.6291 66.437 63.1148 66.437H59.793C59.793 62.7829 56.8033 59.7933 53.1493 59.7933C49.4953 59.7933 46.5056 62.7829 46.5056 66.437H33.2183C33.2183 62.7829 30.2286 59.7933 26.5746 59.7933C22.9206 59.7933 19.9309 62.7829 19.9309 66.437H16.6091C11.0948 66.437 6.64355 61.9857 6.64355 56.4714V46.5059H43.1838C46.8378 46.5059 49.8275 43.5163 49.8275 39.8622V16.6094H55.9397C58.3315 16.6094 60.5238 17.9049 61.7197 19.9645L67.3999 29.8967H63.1148C61.2878 29.8967 59.793 31.3916 59.793 33.2186V43.1841C59.793 45.0111 61.2878 46.5059 63.1148 46.5059H73.0803Z" stroke="#16161A" stroke-width="3" stroke-linecap="round" stroke-linejoin="round"/>
<path d="M26.5753 73.0806C30.2445 73.0806 33.219 70.1061 33.219 66.4369C33.219 62.7677 30.2445 59.7932 26.5753 59.7932C22.9061 59.7932 19.9316 62.7677 19.9316 66.4369C19.9316 70.1061 22.9061 73.0806 26.5753 73.0806Z" stroke="#16161A" stroke-width="3" stroke-linecap="round" stroke-linejoin="round"/>
<path d="M53.1495 73.0806C56.8187 73.0806 59.7932 70.1061 59.7932 66.4369C59.7932 62.7677 56.8187 59.7932 53.1495 59.7932C49.4803 59.7932 46.5059 62.7677 46.5059 66.4369C46.5059 70.1061 49.4803 73.0806 53.1495 73.0806Z" stroke="#16161A" stroke-width="3" stroke-linecap="round" stroke-linejoin="round"/>
<path d="M73.0803 39.862V46.5057H63.1148C61.2878 46.5057 59.793 45.0109 59.793 43.1838V33.2183C59.793 31.3913 61.2878 29.8965 63.1148 29.8965H67.3999L73.0803 39.862Z" stroke="#16161A" stroke-width="3" stroke-linecap="round" stroke-linejoin="round"/>
<path d="M29.8969 16.3101C29.9633 18.8015 29.299 21.1933 28.1032 23.2196C27.4388 24.4155 26.5751 25.5117 25.5453 26.3754C23.2864 28.5346 20.2636 29.8301 16.9086 29.8965C12.7895 29.9962 9.06895 28.2024 6.64401 25.3124C6.17896 24.8141 5.78035 24.2494 5.41495 23.6847C4.11943 21.7248 3.38861 19.3996 3.32217 16.9082C3.22252 12.7227 5.08272 8.9025 8.07238 6.41112C10.3312 4.55089 13.1879 3.38827 16.3105 3.32183C19.7984 3.2554 22.9875 4.5177 25.3792 6.64367C28.0699 9.00218 29.7972 12.4236 29.8969 16.3101Z" stroke="#16161A" stroke-width="3" stroke-miterlimit="10" stroke-linecap="round" stroke-linejoin="round"/>
<path d="M11.4277 16.7091L14.7828 19.8979L21.7254 13.1877" stroke="#16161A" stroke-width="3" stroke-linecap="round" stroke-linejoin="round"/>
</svg>
